%FSLAX45Y45*%
G04 Gerber Fmt 4.5, Leading zero omitted, Abs format (unit mm)*
G04 Created by KiCad (PCBNEW 6.0.2+dfsg-1) date 2022-10-05 13:55:46*
%MOMM*%
%LPD*%
G01*
G04 APERTURE LIST*
%TA.AperFunction,Profile*%
%ADD10C,0.100000*%
%TD*%
%ADD11C,0.200000*%
%ADD12C,0.070000*%
%ADD13C,0.080000*%
%ADD14C,0.090000*%
%ADD15C,0.100000*%
G04 APERTURE END LIST*
D10*
X15748000Y-7874000D02*
G75*
G03*
X15748000Y-7874000I-1270000J0D01*
G01*
D11*
D12*
X14062000Y-8283500D02*
X14132000Y-8353500D01*
X14132000Y-8283500D02*
X14062000Y-8353500D01*
X14824000Y-8283500D02*
X14894000Y-8353500D01*
X14894000Y-8283500D02*
X14824000Y-8353500D01*
D13*
X14397489Y-7874000D02*
G75*
G03*
X14397489Y-7874000I-40000J0D01*
G01*
X14647489Y-7874000D02*
G75*
G03*
X14647489Y-7874000I-40000J0D01*
G01*
D14*
X14224000Y-7042500D02*
X14224000Y-7132500D01*
X14179000Y-7087500D02*
X14269000Y-7087500D01*
X14224000Y-8615500D02*
X14224000Y-8705500D01*
X14179000Y-8660500D02*
X14269000Y-8660500D01*
X14478000Y-7042500D02*
X14478000Y-7132500D01*
X14433000Y-7087500D02*
X14523000Y-7087500D01*
X14478000Y-8615500D02*
X14478000Y-8705500D01*
X14433000Y-8660500D02*
X14523000Y-8660500D01*
X14732000Y-7042500D02*
X14732000Y-7132500D01*
X14687000Y-7087500D02*
X14777000Y-7087500D01*
X14732000Y-8615500D02*
X14732000Y-8705500D01*
X14687000Y-8660500D02*
X14777000Y-8660500D01*
D15*
X15091856Y-7656856D02*
X15091856Y-7586144D01*
X15021144Y-7586144D01*
X15021144Y-7656856D01*
X15091856Y-7656856D01*
X15091856Y-7910856D02*
X15091856Y-7840144D01*
X15021144Y-7840144D01*
X15021144Y-7910856D01*
X15091856Y-7910856D01*
X15091856Y-8164856D02*
X15091856Y-8094144D01*
X15021144Y-8094144D01*
X15021144Y-8164856D01*
X15091856Y-8164856D01*
D11*
X13460619Y-9459476D02*
X13460619Y-9259476D01*
X13508238Y-9259476D01*
X13536809Y-9269000D01*
X13555857Y-9288048D01*
X13565381Y-9307095D01*
X13574905Y-9345190D01*
X13574905Y-9373762D01*
X13565381Y-9411857D01*
X13555857Y-9430905D01*
X13536809Y-9449952D01*
X13508238Y-9459476D01*
X13460619Y-9459476D01*
X13660619Y-9459476D02*
X13660619Y-9326143D01*
X13660619Y-9364238D02*
X13670143Y-9345190D01*
X13679667Y-9335667D01*
X13698714Y-9326143D01*
X13717762Y-9326143D01*
X13784428Y-9459476D02*
X13784428Y-9326143D01*
X13784428Y-9259476D02*
X13774905Y-9269000D01*
X13784428Y-9278524D01*
X13793952Y-9269000D01*
X13784428Y-9259476D01*
X13784428Y-9278524D01*
X13908238Y-9459476D02*
X13889190Y-9449952D01*
X13879667Y-9430905D01*
X13879667Y-9259476D01*
X14013000Y-9459476D02*
X13993952Y-9449952D01*
X13984428Y-9430905D01*
X13984428Y-9259476D01*
X14241571Y-9459476D02*
X14241571Y-9259476D01*
X14308238Y-9402333D01*
X14374905Y-9259476D01*
X14374905Y-9459476D01*
X14555857Y-9459476D02*
X14555857Y-9354714D01*
X14546333Y-9335667D01*
X14527286Y-9326143D01*
X14489190Y-9326143D01*
X14470143Y-9335667D01*
X14555857Y-9449952D02*
X14536809Y-9459476D01*
X14489190Y-9459476D01*
X14470143Y-9449952D01*
X14460619Y-9430905D01*
X14460619Y-9411857D01*
X14470143Y-9392810D01*
X14489190Y-9383286D01*
X14536809Y-9383286D01*
X14555857Y-9373762D01*
X14651095Y-9326143D02*
X14651095Y-9526143D01*
X14651095Y-9335667D02*
X14670143Y-9326143D01*
X14708238Y-9326143D01*
X14727286Y-9335667D01*
X14736809Y-9345190D01*
X14746333Y-9364238D01*
X14746333Y-9421381D01*
X14736809Y-9440429D01*
X14727286Y-9449952D01*
X14708238Y-9459476D01*
X14670143Y-9459476D01*
X14651095Y-9449952D01*
X14832048Y-9440429D02*
X14841571Y-9449952D01*
X14832048Y-9459476D01*
X14822524Y-9449952D01*
X14832048Y-9440429D01*
X14832048Y-9459476D01*
X14832048Y-9335667D02*
X14841571Y-9345190D01*
X14832048Y-9354714D01*
X14822524Y-9345190D01*
X14832048Y-9335667D01*
X14832048Y-9354714D01*
D12*
X13133000Y-9754000D02*
X13203000Y-9824000D01*
X13203000Y-9754000D02*
X13133000Y-9824000D01*
D11*
X13498714Y-9679476D02*
X13517762Y-9679476D01*
X13536809Y-9689000D01*
X13546333Y-9698524D01*
X13555857Y-9717571D01*
X13565381Y-9755667D01*
X13565381Y-9803286D01*
X13555857Y-9841381D01*
X13546333Y-9860429D01*
X13536809Y-9869952D01*
X13517762Y-9879476D01*
X13498714Y-9879476D01*
X13479667Y-9869952D01*
X13470143Y-9860429D01*
X13460619Y-9841381D01*
X13451095Y-9803286D01*
X13451095Y-9755667D01*
X13460619Y-9717571D01*
X13470143Y-9698524D01*
X13479667Y-9689000D01*
X13498714Y-9679476D01*
X13651095Y-9860429D02*
X13660619Y-9869952D01*
X13651095Y-9879476D01*
X13641571Y-9869952D01*
X13651095Y-9860429D01*
X13651095Y-9879476D01*
X13727286Y-9679476D02*
X13860619Y-9679476D01*
X13774905Y-9879476D01*
X13974905Y-9679476D02*
X13993952Y-9679476D01*
X14013000Y-9689000D01*
X14022524Y-9698524D01*
X14032048Y-9717571D01*
X14041571Y-9755667D01*
X14041571Y-9803286D01*
X14032048Y-9841381D01*
X14022524Y-9860429D01*
X14013000Y-9869952D01*
X13993952Y-9879476D01*
X13974905Y-9879476D01*
X13955857Y-9869952D01*
X13946333Y-9860429D01*
X13936809Y-9841381D01*
X13927286Y-9803286D01*
X13927286Y-9755667D01*
X13936809Y-9717571D01*
X13946333Y-9698524D01*
X13955857Y-9689000D01*
X13974905Y-9679476D01*
X14165381Y-9679476D02*
X14184428Y-9679476D01*
X14203476Y-9689000D01*
X14213000Y-9698524D01*
X14222524Y-9717571D01*
X14232048Y-9755667D01*
X14232048Y-9803286D01*
X14222524Y-9841381D01*
X14213000Y-9860429D01*
X14203476Y-9869952D01*
X14184428Y-9879476D01*
X14165381Y-9879476D01*
X14146333Y-9869952D01*
X14136809Y-9860429D01*
X14127286Y-9841381D01*
X14117762Y-9803286D01*
X14117762Y-9755667D01*
X14127286Y-9717571D01*
X14136809Y-9698524D01*
X14146333Y-9689000D01*
X14165381Y-9679476D01*
X14317762Y-9879476D02*
X14317762Y-9746143D01*
X14317762Y-9765190D02*
X14327286Y-9755667D01*
X14346333Y-9746143D01*
X14374905Y-9746143D01*
X14393952Y-9755667D01*
X14403476Y-9774714D01*
X14403476Y-9879476D01*
X14403476Y-9774714D02*
X14413000Y-9755667D01*
X14432048Y-9746143D01*
X14460619Y-9746143D01*
X14479667Y-9755667D01*
X14489190Y-9774714D01*
X14489190Y-9879476D01*
X14584428Y-9879476D02*
X14584428Y-9746143D01*
X14584428Y-9765190D02*
X14593952Y-9755667D01*
X14613000Y-9746143D01*
X14641571Y-9746143D01*
X14660619Y-9755667D01*
X14670143Y-9774714D01*
X14670143Y-9879476D01*
X14670143Y-9774714D02*
X14679667Y-9755667D01*
X14698714Y-9746143D01*
X14727286Y-9746143D01*
X14746333Y-9755667D01*
X14755857Y-9774714D01*
X14755857Y-9879476D01*
X15146333Y-9669952D02*
X14974905Y-9927095D01*
X15403476Y-9679476D02*
X15422524Y-9679476D01*
X15441571Y-9689000D01*
X15451095Y-9698524D01*
X15460619Y-9717571D01*
X15470143Y-9755667D01*
X15470143Y-9803286D01*
X15460619Y-9841381D01*
X15451095Y-9860429D01*
X15441571Y-9869952D01*
X15422524Y-9879476D01*
X15403476Y-9879476D01*
X15384428Y-9869952D01*
X15374905Y-9860429D01*
X15365381Y-9841381D01*
X15355857Y-9803286D01*
X15355857Y-9755667D01*
X15365381Y-9717571D01*
X15374905Y-9698524D01*
X15384428Y-9689000D01*
X15403476Y-9679476D01*
X15555857Y-9860429D02*
X15565381Y-9869952D01*
X15555857Y-9879476D01*
X15546333Y-9869952D01*
X15555857Y-9860429D01*
X15555857Y-9879476D01*
X15689190Y-9679476D02*
X15708238Y-9679476D01*
X15727286Y-9689000D01*
X15736809Y-9698524D01*
X15746333Y-9717571D01*
X15755857Y-9755667D01*
X15755857Y-9803286D01*
X15746333Y-9841381D01*
X15736809Y-9860429D01*
X15727286Y-9869952D01*
X15708238Y-9879476D01*
X15689190Y-9879476D01*
X15670143Y-9869952D01*
X15660619Y-9860429D01*
X15651095Y-9841381D01*
X15641571Y-9803286D01*
X15641571Y-9755667D01*
X15651095Y-9717571D01*
X15660619Y-9698524D01*
X15670143Y-9689000D01*
X15689190Y-9679476D01*
X15832048Y-9698524D02*
X15841571Y-9689000D01*
X15860619Y-9679476D01*
X15908238Y-9679476D01*
X15927286Y-9689000D01*
X15936809Y-9698524D01*
X15946333Y-9717571D01*
X15946333Y-9736619D01*
X15936809Y-9765190D01*
X15822524Y-9879476D01*
X15946333Y-9879476D01*
X16013000Y-9679476D02*
X16146333Y-9679476D01*
X16060619Y-9879476D01*
X16308238Y-9679476D02*
X16270143Y-9679476D01*
X16251095Y-9689000D01*
X16241571Y-9698524D01*
X16222524Y-9727095D01*
X16213000Y-9765190D01*
X16213000Y-9841381D01*
X16222524Y-9860429D01*
X16232048Y-9869952D01*
X16251095Y-9879476D01*
X16289190Y-9879476D01*
X16308238Y-9869952D01*
X16317762Y-9860429D01*
X16327286Y-9841381D01*
X16327286Y-9793762D01*
X16317762Y-9774714D01*
X16308238Y-9765190D01*
X16289190Y-9755667D01*
X16251095Y-9755667D01*
X16232048Y-9765190D01*
X16222524Y-9774714D01*
X16213000Y-9793762D01*
X16403476Y-9679476D02*
X16403476Y-9717571D01*
X16479667Y-9679476D02*
X16479667Y-9717571D01*
X16774905Y-9955667D02*
X16765381Y-9946143D01*
X16746333Y-9917571D01*
X16736809Y-9898524D01*
X16727286Y-9869952D01*
X16717762Y-9822333D01*
X16717762Y-9784238D01*
X16727286Y-9736619D01*
X16736809Y-9708048D01*
X16746333Y-9689000D01*
X16765381Y-9660429D01*
X16774905Y-9650905D01*
X16841571Y-9698524D02*
X16851095Y-9689000D01*
X16870143Y-9679476D01*
X16917762Y-9679476D01*
X16936810Y-9689000D01*
X16946333Y-9698524D01*
X16955857Y-9717571D01*
X16955857Y-9736619D01*
X16946333Y-9765190D01*
X16832048Y-9879476D01*
X16955857Y-9879476D01*
X17193952Y-9879476D02*
X17193952Y-9679476D01*
X17279667Y-9879476D02*
X17279667Y-9774714D01*
X17270143Y-9755667D01*
X17251095Y-9746143D01*
X17222524Y-9746143D01*
X17203476Y-9755667D01*
X17193952Y-9765190D01*
X17403476Y-9879476D02*
X17384429Y-9869952D01*
X17374905Y-9860429D01*
X17365381Y-9841381D01*
X17365381Y-9784238D01*
X17374905Y-9765190D01*
X17384429Y-9755667D01*
X17403476Y-9746143D01*
X17432048Y-9746143D01*
X17451095Y-9755667D01*
X17460619Y-9765190D01*
X17470143Y-9784238D01*
X17470143Y-9841381D01*
X17460619Y-9860429D01*
X17451095Y-9869952D01*
X17432048Y-9879476D01*
X17403476Y-9879476D01*
X17584429Y-9879476D02*
X17565381Y-9869952D01*
X17555857Y-9850905D01*
X17555857Y-9679476D01*
X17736810Y-9869952D02*
X17717762Y-9879476D01*
X17679667Y-9879476D01*
X17660619Y-9869952D01*
X17651095Y-9850905D01*
X17651095Y-9774714D01*
X17660619Y-9755667D01*
X17679667Y-9746143D01*
X17717762Y-9746143D01*
X17736810Y-9755667D01*
X17746333Y-9774714D01*
X17746333Y-9793762D01*
X17651095Y-9812810D01*
X17822524Y-9869952D02*
X17841571Y-9879476D01*
X17879667Y-9879476D01*
X17898714Y-9869952D01*
X17908238Y-9850905D01*
X17908238Y-9841381D01*
X17898714Y-9822333D01*
X17879667Y-9812810D01*
X17851095Y-9812810D01*
X17832048Y-9803286D01*
X17822524Y-9784238D01*
X17822524Y-9774714D01*
X17832048Y-9755667D01*
X17851095Y-9746143D01*
X17879667Y-9746143D01*
X17898714Y-9755667D01*
X17974905Y-9955667D02*
X17984429Y-9946143D01*
X18003476Y-9917571D01*
X18013000Y-9898524D01*
X18022524Y-9869952D01*
X18032048Y-9822333D01*
X18032048Y-9784238D01*
X18022524Y-9736619D01*
X18013000Y-9708048D01*
X18003476Y-9689000D01*
X17984429Y-9660429D01*
X17974905Y-9650905D01*
D13*
X13203000Y-10053000D02*
G75*
G03*
X13203000Y-10053000I-40000J0D01*
G01*
D11*
X13498714Y-9943476D02*
X13517762Y-9943476D01*
X13536809Y-9953000D01*
X13546333Y-9962524D01*
X13555857Y-9981571D01*
X13565381Y-10019667D01*
X13565381Y-10067286D01*
X13555857Y-10105381D01*
X13546333Y-10124429D01*
X13536809Y-10133952D01*
X13517762Y-10143476D01*
X13498714Y-10143476D01*
X13479667Y-10133952D01*
X13470143Y-10124429D01*
X13460619Y-10105381D01*
X13451095Y-10067286D01*
X13451095Y-10019667D01*
X13460619Y-9981571D01*
X13470143Y-9962524D01*
X13479667Y-9953000D01*
X13498714Y-9943476D01*
X13651095Y-10124429D02*
X13660619Y-10133952D01*
X13651095Y-10143476D01*
X13641571Y-10133952D01*
X13651095Y-10124429D01*
X13651095Y-10143476D01*
X13774905Y-10029190D02*
X13755857Y-10019667D01*
X13746333Y-10010143D01*
X13736809Y-9991095D01*
X13736809Y-9981571D01*
X13746333Y-9962524D01*
X13755857Y-9953000D01*
X13774905Y-9943476D01*
X13813000Y-9943476D01*
X13832048Y-9953000D01*
X13841571Y-9962524D01*
X13851095Y-9981571D01*
X13851095Y-9991095D01*
X13841571Y-10010143D01*
X13832048Y-10019667D01*
X13813000Y-10029190D01*
X13774905Y-10029190D01*
X13755857Y-10038714D01*
X13746333Y-10048238D01*
X13736809Y-10067286D01*
X13736809Y-10105381D01*
X13746333Y-10124429D01*
X13755857Y-10133952D01*
X13774905Y-10143476D01*
X13813000Y-10143476D01*
X13832048Y-10133952D01*
X13841571Y-10124429D01*
X13851095Y-10105381D01*
X13851095Y-10067286D01*
X13841571Y-10048238D01*
X13832048Y-10038714D01*
X13813000Y-10029190D01*
X13974905Y-9943476D02*
X13993952Y-9943476D01*
X14013000Y-9953000D01*
X14022524Y-9962524D01*
X14032048Y-9981571D01*
X14041571Y-10019667D01*
X14041571Y-10067286D01*
X14032048Y-10105381D01*
X14022524Y-10124429D01*
X14013000Y-10133952D01*
X13993952Y-10143476D01*
X13974905Y-10143476D01*
X13955857Y-10133952D01*
X13946333Y-10124429D01*
X13936809Y-10105381D01*
X13927286Y-10067286D01*
X13927286Y-10019667D01*
X13936809Y-9981571D01*
X13946333Y-9962524D01*
X13955857Y-9953000D01*
X13974905Y-9943476D01*
X14165381Y-9943476D02*
X14184428Y-9943476D01*
X14203476Y-9953000D01*
X14213000Y-9962524D01*
X14222524Y-9981571D01*
X14232048Y-10019667D01*
X14232048Y-10067286D01*
X14222524Y-10105381D01*
X14213000Y-10124429D01*
X14203476Y-10133952D01*
X14184428Y-10143476D01*
X14165381Y-10143476D01*
X14146333Y-10133952D01*
X14136809Y-10124429D01*
X14127286Y-10105381D01*
X14117762Y-10067286D01*
X14117762Y-10019667D01*
X14127286Y-9981571D01*
X14136809Y-9962524D01*
X14146333Y-9953000D01*
X14165381Y-9943476D01*
X14317762Y-10143476D02*
X14317762Y-10010143D01*
X14317762Y-10029190D02*
X14327286Y-10019667D01*
X14346333Y-10010143D01*
X14374905Y-10010143D01*
X14393952Y-10019667D01*
X14403476Y-10038714D01*
X14403476Y-10143476D01*
X14403476Y-10038714D02*
X14413000Y-10019667D01*
X14432048Y-10010143D01*
X14460619Y-10010143D01*
X14479667Y-10019667D01*
X14489190Y-10038714D01*
X14489190Y-10143476D01*
X14584428Y-10143476D02*
X14584428Y-10010143D01*
X14584428Y-10029190D02*
X14593952Y-10019667D01*
X14613000Y-10010143D01*
X14641571Y-10010143D01*
X14660619Y-10019667D01*
X14670143Y-10038714D01*
X14670143Y-10143476D01*
X14670143Y-10038714D02*
X14679667Y-10019667D01*
X14698714Y-10010143D01*
X14727286Y-10010143D01*
X14746333Y-10019667D01*
X14755857Y-10038714D01*
X14755857Y-10143476D01*
X15146333Y-9933952D02*
X14974905Y-10191095D01*
X15403476Y-9943476D02*
X15422524Y-9943476D01*
X15441571Y-9953000D01*
X15451095Y-9962524D01*
X15460619Y-9981571D01*
X15470143Y-10019667D01*
X15470143Y-10067286D01*
X15460619Y-10105381D01*
X15451095Y-10124429D01*
X15441571Y-10133952D01*
X15422524Y-10143476D01*
X15403476Y-10143476D01*
X15384428Y-10133952D01*
X15374905Y-10124429D01*
X15365381Y-10105381D01*
X15355857Y-10067286D01*
X15355857Y-10019667D01*
X15365381Y-9981571D01*
X15374905Y-9962524D01*
X15384428Y-9953000D01*
X15403476Y-9943476D01*
X15555857Y-10124429D02*
X15565381Y-10133952D01*
X15555857Y-10143476D01*
X15546333Y-10133952D01*
X15555857Y-10124429D01*
X15555857Y-10143476D01*
X15689190Y-9943476D02*
X15708238Y-9943476D01*
X15727286Y-9953000D01*
X15736809Y-9962524D01*
X15746333Y-9981571D01*
X15755857Y-10019667D01*
X15755857Y-10067286D01*
X15746333Y-10105381D01*
X15736809Y-10124429D01*
X15727286Y-10133952D01*
X15708238Y-10143476D01*
X15689190Y-10143476D01*
X15670143Y-10133952D01*
X15660619Y-10124429D01*
X15651095Y-10105381D01*
X15641571Y-10067286D01*
X15641571Y-10019667D01*
X15651095Y-9981571D01*
X15660619Y-9962524D01*
X15670143Y-9953000D01*
X15689190Y-9943476D01*
X15822524Y-9943476D02*
X15946333Y-9943476D01*
X15879667Y-10019667D01*
X15908238Y-10019667D01*
X15927286Y-10029190D01*
X15936809Y-10038714D01*
X15946333Y-10057762D01*
X15946333Y-10105381D01*
X15936809Y-10124429D01*
X15927286Y-10133952D01*
X15908238Y-10143476D01*
X15851095Y-10143476D01*
X15832048Y-10133952D01*
X15822524Y-10124429D01*
X16136809Y-10143476D02*
X16022524Y-10143476D01*
X16079667Y-10143476D02*
X16079667Y-9943476D01*
X16060619Y-9972048D01*
X16041571Y-9991095D01*
X16022524Y-10000619D01*
X16317762Y-9943476D02*
X16222524Y-9943476D01*
X16213000Y-10038714D01*
X16222524Y-10029190D01*
X16241571Y-10019667D01*
X16289190Y-10019667D01*
X16308238Y-10029190D01*
X16317762Y-10038714D01*
X16327286Y-10057762D01*
X16327286Y-10105381D01*
X16317762Y-10124429D01*
X16308238Y-10133952D01*
X16289190Y-10143476D01*
X16241571Y-10143476D01*
X16222524Y-10133952D01*
X16213000Y-10124429D01*
X16403476Y-9943476D02*
X16403476Y-9981571D01*
X16479667Y-9943476D02*
X16479667Y-9981571D01*
X16774905Y-10219667D02*
X16765381Y-10210143D01*
X16746333Y-10181571D01*
X16736809Y-10162524D01*
X16727286Y-10133952D01*
X16717762Y-10086333D01*
X16717762Y-10048238D01*
X16727286Y-10000619D01*
X16736809Y-9972048D01*
X16746333Y-9953000D01*
X16765381Y-9924429D01*
X16774905Y-9914905D01*
X16841571Y-9962524D02*
X16851095Y-9953000D01*
X16870143Y-9943476D01*
X16917762Y-9943476D01*
X16936810Y-9953000D01*
X16946333Y-9962524D01*
X16955857Y-9981571D01*
X16955857Y-10000619D01*
X16946333Y-10029190D01*
X16832048Y-10143476D01*
X16955857Y-10143476D01*
X17193952Y-10143476D02*
X17193952Y-9943476D01*
X17279667Y-10143476D02*
X17279667Y-10038714D01*
X17270143Y-10019667D01*
X17251095Y-10010143D01*
X17222524Y-10010143D01*
X17203476Y-10019667D01*
X17193952Y-10029190D01*
X17403476Y-10143476D02*
X17384429Y-10133952D01*
X17374905Y-10124429D01*
X17365381Y-10105381D01*
X17365381Y-10048238D01*
X17374905Y-10029190D01*
X17384429Y-10019667D01*
X17403476Y-10010143D01*
X17432048Y-10010143D01*
X17451095Y-10019667D01*
X17460619Y-10029190D01*
X17470143Y-10048238D01*
X17470143Y-10105381D01*
X17460619Y-10124429D01*
X17451095Y-10133952D01*
X17432048Y-10143476D01*
X17403476Y-10143476D01*
X17584429Y-10143476D02*
X17565381Y-10133952D01*
X17555857Y-10114905D01*
X17555857Y-9943476D01*
X17736810Y-10133952D02*
X17717762Y-10143476D01*
X17679667Y-10143476D01*
X17660619Y-10133952D01*
X17651095Y-10114905D01*
X17651095Y-10038714D01*
X17660619Y-10019667D01*
X17679667Y-10010143D01*
X17717762Y-10010143D01*
X17736810Y-10019667D01*
X17746333Y-10038714D01*
X17746333Y-10057762D01*
X17651095Y-10076810D01*
X17822524Y-10133952D02*
X17841571Y-10143476D01*
X17879667Y-10143476D01*
X17898714Y-10133952D01*
X17908238Y-10114905D01*
X17908238Y-10105381D01*
X17898714Y-10086333D01*
X17879667Y-10076810D01*
X17851095Y-10076810D01*
X17832048Y-10067286D01*
X17822524Y-10048238D01*
X17822524Y-10038714D01*
X17832048Y-10019667D01*
X17851095Y-10010143D01*
X17879667Y-10010143D01*
X17898714Y-10019667D01*
X17974905Y-10219667D02*
X17984429Y-10210143D01*
X18003476Y-10181571D01*
X18013000Y-10162524D01*
X18022524Y-10133952D01*
X18032048Y-10086333D01*
X18032048Y-10048238D01*
X18022524Y-10000619D01*
X18013000Y-9972048D01*
X18003476Y-9953000D01*
X17984429Y-9924429D01*
X17974905Y-9914905D01*
D14*
X13158000Y-10272000D02*
X13158000Y-10362000D01*
X13113000Y-10317000D02*
X13203000Y-10317000D01*
D11*
X13498714Y-10207476D02*
X13517762Y-10207476D01*
X13536809Y-10217000D01*
X13546333Y-10226524D01*
X13555857Y-10245571D01*
X13565381Y-10283667D01*
X13565381Y-10331286D01*
X13555857Y-10369381D01*
X13546333Y-10388429D01*
X13536809Y-10397952D01*
X13517762Y-10407476D01*
X13498714Y-10407476D01*
X13479667Y-10397952D01*
X13470143Y-10388429D01*
X13460619Y-10369381D01*
X13451095Y-10331286D01*
X13451095Y-10283667D01*
X13460619Y-10245571D01*
X13470143Y-10226524D01*
X13479667Y-10217000D01*
X13498714Y-10207476D01*
X13651095Y-10388429D02*
X13660619Y-10397952D01*
X13651095Y-10407476D01*
X13641571Y-10397952D01*
X13651095Y-10388429D01*
X13651095Y-10407476D01*
X13755857Y-10407476D02*
X13793952Y-10407476D01*
X13813000Y-10397952D01*
X13822524Y-10388429D01*
X13841571Y-10359857D01*
X13851095Y-10321762D01*
X13851095Y-10245571D01*
X13841571Y-10226524D01*
X13832048Y-10217000D01*
X13813000Y-10207476D01*
X13774905Y-10207476D01*
X13755857Y-10217000D01*
X13746333Y-10226524D01*
X13736809Y-10245571D01*
X13736809Y-10293190D01*
X13746333Y-10312238D01*
X13755857Y-10321762D01*
X13774905Y-10331286D01*
X13813000Y-10331286D01*
X13832048Y-10321762D01*
X13841571Y-10312238D01*
X13851095Y-10293190D01*
X13974905Y-10207476D02*
X13993952Y-10207476D01*
X14013000Y-10217000D01*
X14022524Y-10226524D01*
X14032048Y-10245571D01*
X14041571Y-10283667D01*
X14041571Y-10331286D01*
X14032048Y-10369381D01*
X14022524Y-10388429D01*
X14013000Y-10397952D01*
X13993952Y-10407476D01*
X13974905Y-10407476D01*
X13955857Y-10397952D01*
X13946333Y-10388429D01*
X13936809Y-10369381D01*
X13927286Y-10331286D01*
X13927286Y-10283667D01*
X13936809Y-10245571D01*
X13946333Y-10226524D01*
X13955857Y-10217000D01*
X13974905Y-10207476D01*
X14165381Y-10207476D02*
X14184428Y-10207476D01*
X14203476Y-10217000D01*
X14213000Y-10226524D01*
X14222524Y-10245571D01*
X14232048Y-10283667D01*
X14232048Y-10331286D01*
X14222524Y-10369381D01*
X14213000Y-10388429D01*
X14203476Y-10397952D01*
X14184428Y-10407476D01*
X14165381Y-10407476D01*
X14146333Y-10397952D01*
X14136809Y-10388429D01*
X14127286Y-10369381D01*
X14117762Y-10331286D01*
X14117762Y-10283667D01*
X14127286Y-10245571D01*
X14136809Y-10226524D01*
X14146333Y-10217000D01*
X14165381Y-10207476D01*
X14317762Y-10407476D02*
X14317762Y-10274143D01*
X14317762Y-10293190D02*
X14327286Y-10283667D01*
X14346333Y-10274143D01*
X14374905Y-10274143D01*
X14393952Y-10283667D01*
X14403476Y-10302714D01*
X14403476Y-10407476D01*
X14403476Y-10302714D02*
X14413000Y-10283667D01*
X14432048Y-10274143D01*
X14460619Y-10274143D01*
X14479667Y-10283667D01*
X14489190Y-10302714D01*
X14489190Y-10407476D01*
X14584428Y-10407476D02*
X14584428Y-10274143D01*
X14584428Y-10293190D02*
X14593952Y-10283667D01*
X14613000Y-10274143D01*
X14641571Y-10274143D01*
X14660619Y-10283667D01*
X14670143Y-10302714D01*
X14670143Y-10407476D01*
X14670143Y-10302714D02*
X14679667Y-10283667D01*
X14698714Y-10274143D01*
X14727286Y-10274143D01*
X14746333Y-10283667D01*
X14755857Y-10302714D01*
X14755857Y-10407476D01*
X15146333Y-10197952D02*
X14974905Y-10455095D01*
X15403476Y-10207476D02*
X15422524Y-10207476D01*
X15441571Y-10217000D01*
X15451095Y-10226524D01*
X15460619Y-10245571D01*
X15470143Y-10283667D01*
X15470143Y-10331286D01*
X15460619Y-10369381D01*
X15451095Y-10388429D01*
X15441571Y-10397952D01*
X15422524Y-10407476D01*
X15403476Y-10407476D01*
X15384428Y-10397952D01*
X15374905Y-10388429D01*
X15365381Y-10369381D01*
X15355857Y-10331286D01*
X15355857Y-10283667D01*
X15365381Y-10245571D01*
X15374905Y-10226524D01*
X15384428Y-10217000D01*
X15403476Y-10207476D01*
X15555857Y-10388429D02*
X15565381Y-10397952D01*
X15555857Y-10407476D01*
X15546333Y-10397952D01*
X15555857Y-10388429D01*
X15555857Y-10407476D01*
X15689190Y-10207476D02*
X15708238Y-10207476D01*
X15727286Y-10217000D01*
X15736809Y-10226524D01*
X15746333Y-10245571D01*
X15755857Y-10283667D01*
X15755857Y-10331286D01*
X15746333Y-10369381D01*
X15736809Y-10388429D01*
X15727286Y-10397952D01*
X15708238Y-10407476D01*
X15689190Y-10407476D01*
X15670143Y-10397952D01*
X15660619Y-10388429D01*
X15651095Y-10369381D01*
X15641571Y-10331286D01*
X15641571Y-10283667D01*
X15651095Y-10245571D01*
X15660619Y-10226524D01*
X15670143Y-10217000D01*
X15689190Y-10207476D01*
X15822524Y-10207476D02*
X15946333Y-10207476D01*
X15879667Y-10283667D01*
X15908238Y-10283667D01*
X15927286Y-10293190D01*
X15936809Y-10302714D01*
X15946333Y-10321762D01*
X15946333Y-10369381D01*
X15936809Y-10388429D01*
X15927286Y-10397952D01*
X15908238Y-10407476D01*
X15851095Y-10407476D01*
X15832048Y-10397952D01*
X15822524Y-10388429D01*
X16127286Y-10207476D02*
X16032048Y-10207476D01*
X16022524Y-10302714D01*
X16032048Y-10293190D01*
X16051095Y-10283667D01*
X16098714Y-10283667D01*
X16117762Y-10293190D01*
X16127286Y-10302714D01*
X16136809Y-10321762D01*
X16136809Y-10369381D01*
X16127286Y-10388429D01*
X16117762Y-10397952D01*
X16098714Y-10407476D01*
X16051095Y-10407476D01*
X16032048Y-10397952D01*
X16022524Y-10388429D01*
X16308238Y-10274143D02*
X16308238Y-10407476D01*
X16260619Y-10197952D02*
X16213000Y-10340810D01*
X16336809Y-10340810D01*
X16403476Y-10207476D02*
X16403476Y-10245571D01*
X16479667Y-10207476D02*
X16479667Y-10245571D01*
X16774905Y-10483667D02*
X16765381Y-10474143D01*
X16746333Y-10445571D01*
X16736809Y-10426524D01*
X16727286Y-10397952D01*
X16717762Y-10350333D01*
X16717762Y-10312238D01*
X16727286Y-10264619D01*
X16736809Y-10236048D01*
X16746333Y-10217000D01*
X16765381Y-10188429D01*
X16774905Y-10178905D01*
X16936810Y-10207476D02*
X16898714Y-10207476D01*
X16879667Y-10217000D01*
X16870143Y-10226524D01*
X16851095Y-10255095D01*
X16841571Y-10293190D01*
X16841571Y-10369381D01*
X16851095Y-10388429D01*
X16860619Y-10397952D01*
X16879667Y-10407476D01*
X16917762Y-10407476D01*
X16936810Y-10397952D01*
X16946333Y-10388429D01*
X16955857Y-10369381D01*
X16955857Y-10321762D01*
X16946333Y-10302714D01*
X16936810Y-10293190D01*
X16917762Y-10283667D01*
X16879667Y-10283667D01*
X16860619Y-10293190D01*
X16851095Y-10302714D01*
X16841571Y-10321762D01*
X17193952Y-10407476D02*
X17193952Y-10207476D01*
X17279667Y-10407476D02*
X17279667Y-10302714D01*
X17270143Y-10283667D01*
X17251095Y-10274143D01*
X17222524Y-10274143D01*
X17203476Y-10283667D01*
X17193952Y-10293190D01*
X17403476Y-10407476D02*
X17384429Y-10397952D01*
X17374905Y-10388429D01*
X17365381Y-10369381D01*
X17365381Y-10312238D01*
X17374905Y-10293190D01*
X17384429Y-10283667D01*
X17403476Y-10274143D01*
X17432048Y-10274143D01*
X17451095Y-10283667D01*
X17460619Y-10293190D01*
X17470143Y-10312238D01*
X17470143Y-10369381D01*
X17460619Y-10388429D01*
X17451095Y-10397952D01*
X17432048Y-10407476D01*
X17403476Y-10407476D01*
X17584429Y-10407476D02*
X17565381Y-10397952D01*
X17555857Y-10378905D01*
X17555857Y-10207476D01*
X17736810Y-10397952D02*
X17717762Y-10407476D01*
X17679667Y-10407476D01*
X17660619Y-10397952D01*
X17651095Y-10378905D01*
X17651095Y-10302714D01*
X17660619Y-10283667D01*
X17679667Y-10274143D01*
X17717762Y-10274143D01*
X17736810Y-10283667D01*
X17746333Y-10302714D01*
X17746333Y-10321762D01*
X17651095Y-10340810D01*
X17822524Y-10397952D02*
X17841571Y-10407476D01*
X17879667Y-10407476D01*
X17898714Y-10397952D01*
X17908238Y-10378905D01*
X17908238Y-10369381D01*
X17898714Y-10350333D01*
X17879667Y-10340810D01*
X17851095Y-10340810D01*
X17832048Y-10331286D01*
X17822524Y-10312238D01*
X17822524Y-10302714D01*
X17832048Y-10283667D01*
X17851095Y-10274143D01*
X17879667Y-10274143D01*
X17898714Y-10283667D01*
X17974905Y-10483667D02*
X17984429Y-10474143D01*
X18003476Y-10445571D01*
X18013000Y-10426524D01*
X18022524Y-10397952D01*
X18032048Y-10350333D01*
X18032048Y-10312238D01*
X18022524Y-10264619D01*
X18013000Y-10236048D01*
X18003476Y-10217000D01*
X17984429Y-10188429D01*
X17974905Y-10178905D01*
D15*
X13188356Y-10616356D02*
X13188356Y-10545644D01*
X13117644Y-10545644D01*
X13117644Y-10616356D01*
X13188356Y-10616356D01*
D11*
X13565381Y-10671476D02*
X13451095Y-10671476D01*
X13508238Y-10671476D02*
X13508238Y-10471476D01*
X13489190Y-10500048D01*
X13470143Y-10519095D01*
X13451095Y-10528619D01*
X13651095Y-10652429D02*
X13660619Y-10661952D01*
X13651095Y-10671476D01*
X13641571Y-10661952D01*
X13651095Y-10652429D01*
X13651095Y-10671476D01*
X13784428Y-10471476D02*
X13803476Y-10471476D01*
X13822524Y-10481000D01*
X13832048Y-10490524D01*
X13841571Y-10509571D01*
X13851095Y-10547667D01*
X13851095Y-10595286D01*
X13841571Y-10633381D01*
X13832048Y-10652429D01*
X13822524Y-10661952D01*
X13803476Y-10671476D01*
X13784428Y-10671476D01*
X13765381Y-10661952D01*
X13755857Y-10652429D01*
X13746333Y-10633381D01*
X13736809Y-10595286D01*
X13736809Y-10547667D01*
X13746333Y-10509571D01*
X13755857Y-10490524D01*
X13765381Y-10481000D01*
X13784428Y-10471476D01*
X13974905Y-10471476D02*
X13993952Y-10471476D01*
X14013000Y-10481000D01*
X14022524Y-10490524D01*
X14032048Y-10509571D01*
X14041571Y-10547667D01*
X14041571Y-10595286D01*
X14032048Y-10633381D01*
X14022524Y-10652429D01*
X14013000Y-10661952D01*
X13993952Y-10671476D01*
X13974905Y-10671476D01*
X13955857Y-10661952D01*
X13946333Y-10652429D01*
X13936809Y-10633381D01*
X13927286Y-10595286D01*
X13927286Y-10547667D01*
X13936809Y-10509571D01*
X13946333Y-10490524D01*
X13955857Y-10481000D01*
X13974905Y-10471476D01*
X14165381Y-10471476D02*
X14184428Y-10471476D01*
X14203476Y-10481000D01*
X14213000Y-10490524D01*
X14222524Y-10509571D01*
X14232048Y-10547667D01*
X14232048Y-10595286D01*
X14222524Y-10633381D01*
X14213000Y-10652429D01*
X14203476Y-10661952D01*
X14184428Y-10671476D01*
X14165381Y-10671476D01*
X14146333Y-10661952D01*
X14136809Y-10652429D01*
X14127286Y-10633381D01*
X14117762Y-10595286D01*
X14117762Y-10547667D01*
X14127286Y-10509571D01*
X14136809Y-10490524D01*
X14146333Y-10481000D01*
X14165381Y-10471476D01*
X14317762Y-10671476D02*
X14317762Y-10538143D01*
X14317762Y-10557190D02*
X14327286Y-10547667D01*
X14346333Y-10538143D01*
X14374905Y-10538143D01*
X14393952Y-10547667D01*
X14403476Y-10566714D01*
X14403476Y-10671476D01*
X14403476Y-10566714D02*
X14413000Y-10547667D01*
X14432048Y-10538143D01*
X14460619Y-10538143D01*
X14479667Y-10547667D01*
X14489190Y-10566714D01*
X14489190Y-10671476D01*
X14584428Y-10671476D02*
X14584428Y-10538143D01*
X14584428Y-10557190D02*
X14593952Y-10547667D01*
X14613000Y-10538143D01*
X14641571Y-10538143D01*
X14660619Y-10547667D01*
X14670143Y-10566714D01*
X14670143Y-10671476D01*
X14670143Y-10566714D02*
X14679667Y-10547667D01*
X14698714Y-10538143D01*
X14727286Y-10538143D01*
X14746333Y-10547667D01*
X14755857Y-10566714D01*
X14755857Y-10671476D01*
X15146333Y-10461952D02*
X14974905Y-10719095D01*
X15403476Y-10471476D02*
X15422524Y-10471476D01*
X15441571Y-10481000D01*
X15451095Y-10490524D01*
X15460619Y-10509571D01*
X15470143Y-10547667D01*
X15470143Y-10595286D01*
X15460619Y-10633381D01*
X15451095Y-10652429D01*
X15441571Y-10661952D01*
X15422524Y-10671476D01*
X15403476Y-10671476D01*
X15384428Y-10661952D01*
X15374905Y-10652429D01*
X15365381Y-10633381D01*
X15355857Y-10595286D01*
X15355857Y-10547667D01*
X15365381Y-10509571D01*
X15374905Y-10490524D01*
X15384428Y-10481000D01*
X15403476Y-10471476D01*
X15555857Y-10652429D02*
X15565381Y-10661952D01*
X15555857Y-10671476D01*
X15546333Y-10661952D01*
X15555857Y-10652429D01*
X15555857Y-10671476D01*
X15689190Y-10471476D02*
X15708238Y-10471476D01*
X15727286Y-10481000D01*
X15736809Y-10490524D01*
X15746333Y-10509571D01*
X15755857Y-10547667D01*
X15755857Y-10595286D01*
X15746333Y-10633381D01*
X15736809Y-10652429D01*
X15727286Y-10661952D01*
X15708238Y-10671476D01*
X15689190Y-10671476D01*
X15670143Y-10661952D01*
X15660619Y-10652429D01*
X15651095Y-10633381D01*
X15641571Y-10595286D01*
X15641571Y-10547667D01*
X15651095Y-10509571D01*
X15660619Y-10490524D01*
X15670143Y-10481000D01*
X15689190Y-10471476D01*
X15822524Y-10471476D02*
X15946333Y-10471476D01*
X15879667Y-10547667D01*
X15908238Y-10547667D01*
X15927286Y-10557190D01*
X15936809Y-10566714D01*
X15946333Y-10585762D01*
X15946333Y-10633381D01*
X15936809Y-10652429D01*
X15927286Y-10661952D01*
X15908238Y-10671476D01*
X15851095Y-10671476D01*
X15832048Y-10661952D01*
X15822524Y-10652429D01*
X16041571Y-10671476D02*
X16079667Y-10671476D01*
X16098714Y-10661952D01*
X16108238Y-10652429D01*
X16127286Y-10623857D01*
X16136809Y-10585762D01*
X16136809Y-10509571D01*
X16127286Y-10490524D01*
X16117762Y-10481000D01*
X16098714Y-10471476D01*
X16060619Y-10471476D01*
X16041571Y-10481000D01*
X16032048Y-10490524D01*
X16022524Y-10509571D01*
X16022524Y-10557190D01*
X16032048Y-10576238D01*
X16041571Y-10585762D01*
X16060619Y-10595286D01*
X16098714Y-10595286D01*
X16117762Y-10585762D01*
X16127286Y-10576238D01*
X16136809Y-10557190D01*
X16308238Y-10538143D02*
X16308238Y-10671476D01*
X16260619Y-10461952D02*
X16213000Y-10604810D01*
X16336809Y-10604810D01*
X16403476Y-10471476D02*
X16403476Y-10509571D01*
X16479667Y-10471476D02*
X16479667Y-10509571D01*
X16774905Y-10747667D02*
X16765381Y-10738143D01*
X16746333Y-10709571D01*
X16736809Y-10690524D01*
X16727286Y-10661952D01*
X16717762Y-10614333D01*
X16717762Y-10576238D01*
X16727286Y-10528619D01*
X16736809Y-10500048D01*
X16746333Y-10481000D01*
X16765381Y-10452429D01*
X16774905Y-10442905D01*
X16832048Y-10471476D02*
X16955857Y-10471476D01*
X16889190Y-10547667D01*
X16917762Y-10547667D01*
X16936810Y-10557190D01*
X16946333Y-10566714D01*
X16955857Y-10585762D01*
X16955857Y-10633381D01*
X16946333Y-10652429D01*
X16936810Y-10661952D01*
X16917762Y-10671476D01*
X16860619Y-10671476D01*
X16841571Y-10661952D01*
X16832048Y-10652429D01*
X17193952Y-10671476D02*
X17193952Y-10471476D01*
X17279667Y-10671476D02*
X17279667Y-10566714D01*
X17270143Y-10547667D01*
X17251095Y-10538143D01*
X17222524Y-10538143D01*
X17203476Y-10547667D01*
X17193952Y-10557190D01*
X17403476Y-10671476D02*
X17384429Y-10661952D01*
X17374905Y-10652429D01*
X17365381Y-10633381D01*
X17365381Y-10576238D01*
X17374905Y-10557190D01*
X17384429Y-10547667D01*
X17403476Y-10538143D01*
X17432048Y-10538143D01*
X17451095Y-10547667D01*
X17460619Y-10557190D01*
X17470143Y-10576238D01*
X17470143Y-10633381D01*
X17460619Y-10652429D01*
X17451095Y-10661952D01*
X17432048Y-10671476D01*
X17403476Y-10671476D01*
X17584429Y-10671476D02*
X17565381Y-10661952D01*
X17555857Y-10642905D01*
X17555857Y-10471476D01*
X17736810Y-10661952D02*
X17717762Y-10671476D01*
X17679667Y-10671476D01*
X17660619Y-10661952D01*
X17651095Y-10642905D01*
X17651095Y-10566714D01*
X17660619Y-10547667D01*
X17679667Y-10538143D01*
X17717762Y-10538143D01*
X17736810Y-10547667D01*
X17746333Y-10566714D01*
X17746333Y-10585762D01*
X17651095Y-10604810D01*
X17822524Y-10661952D02*
X17841571Y-10671476D01*
X17879667Y-10671476D01*
X17898714Y-10661952D01*
X17908238Y-10642905D01*
X17908238Y-10633381D01*
X17898714Y-10614333D01*
X17879667Y-10604810D01*
X17851095Y-10604810D01*
X17832048Y-10595286D01*
X17822524Y-10576238D01*
X17822524Y-10566714D01*
X17832048Y-10547667D01*
X17851095Y-10538143D01*
X17879667Y-10538143D01*
X17898714Y-10547667D01*
X17974905Y-10747667D02*
X17984429Y-10738143D01*
X18003476Y-10709571D01*
X18013000Y-10690524D01*
X18022524Y-10661952D01*
X18032048Y-10614333D01*
X18032048Y-10576238D01*
X18022524Y-10528619D01*
X18013000Y-10500048D01*
X18003476Y-10481000D01*
X17984429Y-10452429D01*
X17974905Y-10442905D01*
M02*
